<?xml version="1.0" encoding="UTF-8" standalone="no"?>
<svg
   xmlns:dc="http://purl.org/dc/elements/1.1/"
   xmlns:cc="http://creativecommons.org/ns#"
   xmlns:rdf="http://www.w3.org/1999/02/22-rdf-syntax-ns#"
   xmlns:svg="http://www.w3.org/2000/svg"
   xmlns="http://www.w3.org/2000/svg"
   id="svg2"
   version="1.1"
   xml:space="preserve"
   width="191.74313"
   height="159.123"
   viewBox="0 0 191.74313 159.123"><metadata
     id="metadata8"><rdf:RDF><cc:Work
         rdf:about=""><dc:format>image/svg+xml</dc:format><dc:type
           rdf:resource="http://purl.org/dc/dcmitype/StillImage" /><dc:title></dc:title></cc:Work></rdf:RDF></metadata><defs
     id="defs6"><clipPath
       clipPathUnits="userSpaceOnUse"
       id="clipPath16"><path
         d="m 0,150 175.5,0 0,-150 L 0,0 0,150 Z"
         id="path18" /></clipPath></defs><g
     id="g10"
     transform="matrix(1.25,0,0,-1.25,-14.612625,173.01162)"><g
       id="g12"><g
         id="g14"
         clip-path="url(#clipPath16)"><g
           style="fill:#ffffff"
           id="g20"
           transform="translate(19.7041,84.4199)"><path
             d="M 0,0 C 0.899,0.016 1.408,0.718 1.388,1.965 L 1.342,4.757 -1.593,4.708 -1.549,2.059 C -1.528,0.812 -1.025,-0.017 0,0 m -4.645,-0.691 c 0.948,0.015 1.488,0.765 1.462,2.296 l -0.05,3.077 -3.03,-0.05 0.053,-3.219 c 0.023,-1.325 0.556,-2.121 1.565,-2.104 M 0.348,-1.936 C -1.01,-1.957 -1.716,-1.211 -2.155,-0.398 -2.576,-1.699 -3.303,-2.611 -4.817,-2.636 -6.806,-2.668 -7.89,-1.061 -7.93,1.4 L -8.014,6.513 3.03,6.694 3.112,1.74 C 3.148,-0.484 2.083,-1.906 0.348,-1.936"
             style="fill:#ffffff;fill-opacity:1;fill-rule:nonzero;stroke:none"
             id="path22" /></g><g
           style="fill:#ffffff"
           id="g24"
           transform="translate(22.2949,72.3564)"><path
             d="M 0,0 -4.729,0.849 -3.873,-2.854 0,0 Z m -7.27,-7.623 -0.461,1.997 2.343,1.691 L -6.564,1.152 -9.417,1.657 -9.865,3.594 2.063,1.368 2.468,-0.384 -7.27,-7.623 Z"
             style="fill:#ffffff;fill-opacity:1;fill-rule:nonzero;stroke:none"
             id="path26" /></g><g
           style="fill:#ffffff"
           id="g28"
           transform="translate(29.4912,58.8574)"><path
             d="m 0,0 0.741,-1.463 -6.104,-6.133 8.492,1.35 0.919,-1.816 -11.657,-1.59 -0.755,1.491 5.85,6.004 -8.301,-1.165 -0.756,1.492 8.179,8.456 L -2.443,4.755 -8.556,-1.293 0,0 Z"
             style="fill:#ffffff;fill-opacity:1;fill-rule:nonzero;stroke:none"
             id="path30" /></g><g
           style="fill:#ffffff"
           id="g32"
           transform="translate(44.3447,34.873)"><path
             d="M 0,0 C 0.599,0.67 0.429,1.52 -0.499,2.351 L -2.579,4.211 -4.534,2.025 -2.561,0.26 C -1.633,-0.57 -0.684,-0.764 0,0 m -2.644,-3.876 c 0.631,0.704 0.447,1.61 -0.693,2.63 l -2.291,2.051 -2.018,-2.256 2.396,-2.146 c 0.987,-0.882 1.934,-1.031 2.606,-0.279 m 4.299,2.817 c -0.904,-1.009 -1.93,-1.022 -2.826,-0.793 0.669,-1.191 0.845,-2.341 -0.164,-3.47 -1.325,-1.481 -3.239,-1.185 -5.072,0.455 l -3.807,3.406 7.36,8.225 3.689,-3.301 C 2.491,1.98 2.812,0.234 1.655,-1.059"
             style="fill:#ffffff;fill-opacity:1;fill-rule:nonzero;stroke:none"
             id="path34" /></g><g
           style="fill:#ffffff"
           id="g36"
           transform="translate(54.9941,28.6318)"><path
             d="M 0,0 -3.825,-2.907 -0.52,-4.782 0,0 Z m 0.692,-10.511 -1.783,1.012 0.341,2.871 -4.541,2.576 L -7.594,-5.81 -9.322,-4.829 0.39,2.444 1.953,1.558 0.692,-10.511 Z"
             style="fill:#ffffff;fill-opacity:1;fill-rule:nonzero;stroke:none"
             id="path38" /></g><g
           style="fill:#ffffff"
           id="g40"
           transform="translate(69.8369,24.7842)"><path
             d="m 0,0 1.579,-0.444 0.386,-8.645 4.753,7.166 1.958,-0.551 -6.717,-9.662 -1.609,0.453 -0.462,8.371 -4.761,-6.9 -1.609,0.451 -0.693,11.747 2.02,-0.568 0.318,-8.593 L 0,0 Z"
             style="fill:#ffffff;fill-opacity:1;fill-rule:nonzero;stroke:none"
             id="path42" /></g><g
           style="fill:#ffffff"
           id="g44"
           transform="translate(99.9717,21.7979)"><path
             d="m 0,0 -6.65,-0.718 0.422,-3.922 5.946,0.643 0.122,-1.131 -5.945,-0.641 0.516,-4.785 -1.239,-0.133 -1.186,10.98 7.891,0.853 L 0,0 Z"
             style="fill:#ffffff;fill-opacity:1;fill-rule:nonzero;stroke:none"
             id="path46" /></g><g
           style="fill:#ffffff"
           id="g48"
           transform="translate(109.3418,24.4805)"><path
             d="m 0,0 c -2.395,-0.793 -3.467,-3.274 -2.673,-5.67 0.793,-2.394 3.175,-3.766 5.569,-2.973 2.396,0.795 3.467,3.276 2.673,5.67 C 4.776,-0.577 2.396,0.794 0,0 m 3.229,-9.744 c -3.189,-1.057 -6.158,0.734 -7.12,3.639 -0.962,2.903 0.37,6.152 3.559,7.209 3.188,1.055 6.157,-0.735 7.119,-3.639 0.962,-2.904 -0.37,-6.153 -3.558,-7.209"
             style="fill:#ffffff;fill-opacity:1;fill-rule:nonzero;stroke:none"
             id="path50" /></g><g
           style="fill:#ffffff"
           id="g52"
           transform="translate(123.5547,31.1484)"><path
             d="m 0,0 c -2.142,-1.335 -2.599,-3.999 -1.263,-6.141 1.335,-2.14 3.973,-2.912 6.114,-1.576 2.141,1.335 2.598,3.999 1.262,6.141 C 4.778,0.564 2.141,1.336 0,0 m 5.434,-8.711 c -2.851,-1.777 -6.159,-0.736 -7.778,1.859 -1.619,2.596 -1.09,6.069 1.761,7.846 2.851,1.777 6.158,0.736 7.777,-1.859 1.619,-2.596 1.089,-6.069 -1.76,-7.846"
             style="fill:#ffffff;fill-opacity:1;fill-rule:nonzero;stroke:none"
             id="path54" /></g><g
           style="fill:#ffffff"
           id="g56"
           transform="translate(135.0605,39.9336)"><path
             d="M 0,0 -1.829,-1.83 4.35,-8.009 6.179,-6.18 C 8.153,-4.205 8.075,-1.606 6.335,0.134 4.596,1.873 1.974,1.975 0,0 m 6.993,-6.994 -2.71,-2.71 -7.808,7.808 2.711,2.71 C 1.64,3.268 5.02,3.279 7.228,1.07 9.437,-1.138 9.447,-4.54 6.993,-6.994"
             style="fill:#ffffff;fill-opacity:1;fill-rule:nonzero;stroke:none"
             id="path58" /></g><g
           style="fill:#ffffff"
           id="g60"
           transform="translate(151.9023,54.2188)"><path
             d="M 0,0 4.489,-2.125 3.957,-3.25 -6.02,1.471 -5.486,2.596 -1.055,0.498 1.67,6.256 -2.762,8.354 -2.229,9.48 7.747,4.759 7.214,3.633 2.725,5.758 0,0 Z"
             style="fill:#ffffff;fill-opacity:1;fill-rule:nonzero;stroke:none"
             id="path62" /></g><g
           style="fill:#ffffff"
           id="g64"
           transform="translate(159.584,76.1367)"><path
             d="M 0,0 C 3.138,-0.717 4.357,-2.888 3.743,-5.58 3.137,-8.24 1.092,-9.684 -1.954,-8.988 l -6.26,1.427 0.277,1.216 6.184,-1.411 c 2.322,-0.529 3.91,0.402 4.381,2.463 0.452,1.984 -0.459,3.52 -2.813,4.057 L -6.444,0.191 -6.168,1.407 0,0 Z"
             style="fill:#ffffff;fill-opacity:1;fill-rule:nonzero;stroke:none"
             id="path66" /></g><g
           style="fill:#ffffff"
           id="g68"
           transform="translate(162.0205,90.2939)"><path
             d="m 0,0 c -1.215,0.02 -1.926,-0.979 -1.957,-2.903 l -0.058,-3.487 3.898,-0.064 0.06,3.707 C 1.971,-1.074 1.247,-0.021 0,0 m -5.012,-0.533 c -1.103,0.018 -1.828,-0.838 -1.854,-2.415 l -0.055,-3.362 3.802,-0.062 0.054,3.266 c 0.025,1.499 -0.637,2.551 -1.947,2.573 m -0.152,1.265 c 1.451,-0.024 2.179,-0.919 2.543,-1.794 0.416,1.304 1.19,2.348 2.721,2.323 1.909,-0.032 3.004,-1.643 2.963,-4.057 l -0.081,-4.907 -11.044,0.182 0.078,4.702 c 0.036,2.176 1.131,3.579 2.82,3.551"
             style="fill:#ffffff;fill-opacity:1;fill-rule:nonzero;stroke:none"
             id="path70" /></g><g
           style="fill:#ffffff"
           id="g72"
           transform="translate(88.4121,36.1953)"><path
             d="m 0,0 c -3.487,0 -6.89,0.365 -10.175,1.053 l 0,55.74 59.31,0 c 0.338,-2.332 0.52,-4.714 0.52,-7.139 C 49.655,22.274 27.38,0 0,0 m -49.654,49.654 c 0,2.425 0.183,4.807 0.521,7.139 l 13.721,0 c -0.132,-1.661 -1.138,-2.564 -2.402,-3.674 -1.524,-1.338 -3.419,-3.002 -3.419,-6.224 0,-3.225 1.895,-4.885 3.419,-6.221 1.357,-1.192 2.428,-2.131 2.428,-4.035 0,-1.909 -1.072,-2.85 -2.43,-4.041 -1.522,-1.336 -3.417,-3.002 -3.417,-6.225 0,-3.225 1.895,-4.893 3.417,-6.228 1.358,-1.194 2.43,-2.135 2.43,-4.045 0,-0.403 -0.062,-0.749 -0.15,-1.078 -8.726,8.954 -14.118,21.172 -14.118,34.632 M 0.8,60.425 c -0.427,2.548 -1.167,4.897 -2.163,6.968 2.269,6.975 6.97,11.446 12.137,11.446 7.035,0 12.823,-8.108 13.438,-18.414 l -23.412,0 z m -25.042,0 c 1.394,7.058 5.68,12.164 10.486,12.164 4.805,0 9.091,-5.106 10.486,-12.164 l -20.972,0 z m 1.844,-50.552 c 1.523,1.336 3.418,3 3.418,6.227 0,3.224 -1.895,4.89 -3.418,6.226 -1.356,1.194 -2.429,2.137 -2.429,4.047 0,1.908 1.073,2.848 2.429,4.039 1.523,1.338 3.418,3.002 3.418,6.227 0,3.222 -1.895,4.882 -3.418,6.218 -1.356,1.192 -2.429,2.129 -2.429,4.038 0,1.908 1.073,2.847 2.429,4.039 1.462,1.282 3.249,2.882 3.391,5.859 l 5.2,0 0,-54.825 c -3.861,1.12 -7.527,2.695 -10.94,4.667 0.262,1.39 1.2,2.227 2.349,3.238 m -13.5,12.453 c -1.356,1.194 -2.429,2.137 -2.429,4.047 0,1.908 1.073,2.848 2.429,4.039 1.523,1.338 3.418,3.002 3.418,6.227 0,3.222 -1.895,4.882 -3.418,6.218 -1.356,1.192 -2.429,2.129 -2.429,4.038 0,1.908 1.073,2.847 2.429,4.039 1.462,1.282 3.249,2.882 3.391,5.859 l 10.595,0 c -0.132,-1.661 -1.138,-2.564 -2.402,-3.674 -1.524,-1.338 -3.419,-3.002 -3.419,-6.224 0,-3.225 1.895,-4.885 3.419,-6.221 1.357,-1.192 2.428,-2.131 2.428,-4.035 0,-1.909 -1.072,-2.85 -2.43,-4.041 -1.522,-1.336 -3.417,-3.002 -3.417,-6.225 0,-3.225 1.895,-4.893 3.417,-6.228 1.358,-1.194 2.43,-2.135 2.43,-4.045 0,-1.911 -1.072,-2.852 -2.43,-4.045 -1.09,-0.956 -2.359,-2.092 -2.999,-3.837 -2.104,1.391 -4.1,2.932 -5.964,4.619 0.48,0.882 0.799,1.94 0.799,3.263 0,3.224 -1.895,4.89 -3.418,6.226 M 0,99.309 c 23.681,0 43.53,-16.667 48.465,-38.884 l -20.246,0 c -0.673,12.515 -8.237,22.414 -17.445,22.414 -6.117,0 -11.64,-4.313 -14.797,-11.259 -2.624,3.146 -6.029,5.009 -9.733,5.009 -7.028,0 -12.972,-6.709 -14.555,-16.164 l -20.152,0 C -43.529,82.642 -23.68,99.309 0,99.309 m 0,2.905 c -28.981,0 -52.559,-23.578 -52.559,-52.56 0,-28.981 23.578,-52.56 52.559,-52.56 28.982,0 52.562,23.579 52.562,52.56 0,28.982 -23.58,52.56 -52.562,52.56"
             style="fill:#ffffff;fill-opacity:1;fill-rule:nonzero;stroke:none"
             id="path74" /></g><g
           style="fill:#ffffff"
           id="g76"
           transform="translate(81.6357,81.9707)"><path
             d="m 0,0 c 2.136,0 3.875,-2.016 3.875,-4.494 0,-0.803 0.65,-1.453 1.452,-1.453 0.802,0 1.453,0.65 1.453,1.453 0,2.478 1.738,4.494 3.872,4.494 0.803,0 1.453,0.65 1.453,1.453 0,0.803 -0.65,1.453 -1.453,1.453 C 8.492,2.906 6.569,1.793 5.327,0.068 4.084,1.793 2.161,2.906 0,2.906 -0.802,2.906 -1.453,2.256 -1.453,1.453 -1.453,0.65 -0.802,0 0,0"
             style="fill:#ffffff;fill-opacity:1;fill-rule:nonzero;stroke:none"
             id="path78" /></g><g
           style="fill:#ffffff"
           id="g80"
           transform="translate(102.665,81.9707)"><path
             d="m 0,0 c 2.137,0 3.874,-2.016 3.874,-4.494 0,-0.803 0.65,-1.453 1.453,-1.453 0.803,0 1.453,0.65 1.453,1.453 0,2.478 1.738,4.494 3.872,4.494 0.803,0 1.453,0.65 1.453,1.453 0,0.803 -0.65,1.453 -1.453,1.453 C 8.492,2.906 6.569,1.793 5.327,0.068 4.084,1.793 2.161,2.906 0,2.906 -0.803,2.906 -1.453,2.256 -1.453,1.453 -1.453,0.65 -0.803,0 0,0"
             style="fill:#ffffff;fill-opacity:1;fill-rule:nonzero;stroke:none"
             id="path82" /></g><g
           style="fill:#ffffff"
           id="g84"
           transform="translate(92.2881,54.5918)"><path
             d="M 0,0 C -2.16,0 -4.083,-1.114 -5.325,-2.839 -6.568,-1.114 -8.491,0 -10.652,0 c -0.803,0 -1.453,-0.65 -1.453,-1.453 0,-0.803 0.65,-1.453 1.453,-1.453 2.136,0 3.874,-2.018 3.874,-4.498 0,-0.803 0.651,-1.453 1.453,-1.453 0.802,0 1.452,0.65 1.452,1.453 0,2.48 1.738,4.498 3.873,4.498 0.803,0 1.453,0.65 1.453,1.453 C 1.453,-0.65 0.803,0 0,0"
             style="fill:#ffffff;fill-opacity:1;fill-rule:nonzero;stroke:none"
             id="path86" /></g><g
           style="fill:#ffffff"
           id="g88"
           transform="translate(114.3174,54.5918)"><path
             d="M 0,0 C -2.16,0 -4.083,-1.113 -5.325,-2.839 -6.568,-1.113 -8.491,0 -10.652,0 c -0.803,0 -1.453,-0.65 -1.453,-1.453 0,-0.803 0.65,-1.453 1.453,-1.453 2.136,0 3.874,-2.018 3.874,-4.498 0,-0.803 0.65,-1.453 1.453,-1.453 0.803,0 1.453,0.65 1.453,1.453 0,2.48 1.737,4.498 3.872,4.498 0.803,0 1.453,0.65 1.453,1.453 C 1.453,-0.65 0.803,0 0,0"
             style="fill:#ffffff;fill-opacity:1;fill-rule:nonzero;stroke:none"
             id="path90" /></g><g
           style="fill:#ffffff"
           id="g92"
           transform="translate(103.7568,68.8145)"><path
             d="m 0,0 c 0,0.803 -0.65,1.453 -1.453,1.453 -2.16,0 -4.083,-1.113 -5.325,-2.837 -1.243,1.724 -3.166,2.837 -5.326,2.837 -0.803,0 -1.454,-0.65 -1.454,-1.453 0,-0.803 0.651,-1.453 1.454,-1.453 2.135,0 3.873,-2.016 3.873,-4.494 0,-0.803 0.65,-1.453 1.453,-1.453 0.802,0 1.453,0.65 1.453,1.453 0,2.478 1.737,4.494 3.872,4.494 C -0.65,-1.453 0,-0.803 0,0"
             style="fill:#ffffff;fill-opacity:1;fill-rule:nonzero;stroke:none"
             id="path94" /></g><g
           style="fill:#ffffff"
           id="g96"
           transform="translate(124.333,70.2676)"><path
             d="M 0,0 C -2.161,0 -4.084,-1.113 -5.326,-2.837 -6.568,-1.113 -8.491,0 -10.652,0 c -0.803,0 -1.453,-0.65 -1.453,-1.453 0,-0.803 0.65,-1.453 1.453,-1.453 2.135,0 3.873,-2.016 3.873,-4.494 0,-0.803 0.65,-1.454 1.453,-1.454 0.803,0 1.453,0.651 1.453,1.454 0,2.478 1.737,4.494 3.873,4.494 0.803,0 1.453,0.65 1.453,1.453 C 1.453,-0.65 0.803,0 0,0"
             style="fill:#ffffff;fill-opacity:1;fill-rule:nonzero;stroke:none"
             id="path98" /></g><g
           style="fill:#ffffff"
           id="g100"
           transform="translate(134.3877,84.877)"><path
             d="M 0,0 C -2.16,0 -4.083,-1.113 -5.325,-2.837 -6.567,-1.113 -8.491,0 -10.651,0 c -0.803,0 -1.453,-0.65 -1.453,-1.453 0,-0.803 0.65,-1.453 1.453,-1.453 2.135,0 3.873,-2.016 3.873,-4.494 0,-0.803 0.65,-1.454 1.453,-1.454 0.803,0 1.453,0.651 1.453,1.454 0,2.478 1.737,4.494 3.872,4.494 0.803,0 1.453,0.65 1.453,1.453 C 1.453,-0.65 0.803,0 0,0"
             style="fill:#ffffff;fill-opacity:1;fill-rule:nonzero;stroke:none"
             id="path102" /></g></g></g></g></svg>